<svg width="33" height="41" fill="none" xmlns="http://www.w3.org/2000/svg"><path d="M16.93 3.043c-6.237 0-11.306 5.07-11.306 11.307v5.446c0 1.15-.49 2.902-1.075 3.882l-2.167 3.6c-1.338 2.223-.414 4.692 2.035 5.521a39.426 39.426 0 0025.008 0c2.28-.754 3.279-3.448 2.035-5.521l-2.167-3.6c-.565-.98-1.055-2.732-1.055-3.882V14.35c0-6.219-5.088-11.307-11.307-11.307z" stroke="#43B64B" stroke-width="2" stroke-miterlimit="10" stroke-linecap="round"/><path d="M20.417 3.591a11.408 11.408 0 00-1.81-.377c-1.808-.226-3.542-.094-5.163.377a3.741 3.741 0 013.487-2.374c1.583 0 2.94.98 3.486 2.374z" stroke="#43B64B" stroke-width="2" stroke-miterlimit="10" stroke-linecap="round" stroke-linejoin="round"/><path d="M22.584 33.48c0 3.11-2.544 5.654-5.653 5.654a5.673 5.673 0 01-3.995-1.658 5.673 5.673 0 01-1.659-3.995" stroke="#43B64B" stroke-width="2" stroke-miterlimit="10"/></svg>