<svg width="34" height="33" fill="none" xmlns="http://www.w3.org/2000/svg"><path d="M15.817 3.691a2.974 2.974 0 012.626-1.599c1.645 0 2.977 1.353 2.977 3.022 0 1.67-1.332 3.022-2.977 3.022-.569 0-1.03.469-1.03 1.047 0 .577.461 1.046 1.03 1.046 2.783 0 5.038-2.29 5.038-5.115S21.226 0 18.443 0A5.028 5.028 0 0014 2.705a1.05 1.05 0 00.423 1.416c.5.271 1.128.081 1.395-.43zM1.03 10.264h17.413c.57 0 1.03-.469 1.03-1.046 0-.578-.46-1.046-1.03-1.046H1.03C.461 8.172 0 8.64 0 9.218c0 .577.461 1.046 1.03 1.046zm25.656.243a2.953 2.953 0 012.276-1.074c1.645 0 2.977 1.352 2.977 3.022 0 1.666-1.332 3.022-2.977 3.022-.569 0-1.03.468-1.03 1.046 0 .578.462 1.046 1.03 1.046 2.783 0 5.038-2.29 5.038-5.114 0-2.825-2.255-5.115-5.038-5.115a5 5 0 00-3.854 1.821 1.056 1.056 0 00.125 1.476c.433.37 1.086.314 1.453-.13zM1.211 17.569h27.748c.569 0 1.03-.468 1.03-1.046 0-.578-.458-1.046-1.027-1.046H1.211c-.57 0-1.03.468-1.03 1.046 0 .578.46 1.046 1.03 1.046zm22.051 7.295c1.645 0 2.977 1.352 2.977 3.022 0 1.67-1.332 3.022-2.977 3.022-1.11 0-2.11-.624-2.626-1.6a1.023 1.023 0 00-1.395-.429c-.503.271-.69.909-.423 1.416A5.023 5.023 0 0023.262 33c2.783 0 5.038-2.29 5.038-5.114 0-2.825-2.255-5.115-5.038-5.115-.569 0-1.03.469-1.03 1.046 0 .578.461 1.047 1.03 1.047zm0-2.096H1.301c-.569 0-1.03.468-1.03 1.046 0 .578.461 1.046 1.03 1.046h21.961c.57 0 1.03-.468 1.03-1.046 0-.578-.46-1.046-1.03-1.046z" fill="#43B64B"/></svg>