<svg width="33" height="31" fill="none" xmlns="http://www.w3.org/2000/svg"><path d="M32 4.112V22.82c0 1.488-1.209 2.883-2.697 3.07l-.512.061c-3.378.45-8.587 2.17-11.563 3.813-.402.233-1.069.233-1.488 0l-.062-.03C12.703 28.105 7.51 26.4 4.147 25.95l-.45-.062C2.209 25.703 1 24.31 1 22.82V4.096C1 2.252 2.503.856 4.348 1.012c3.255.263 8.184 1.906 10.943 3.627l.387.232c.45.28 1.194.28 1.643 0l.264-.17c.976-.605 2.216-1.21 3.565-1.752v6.324l3.1-2.061 3.1 2.061v-8.09c.418-.078.822-.125 1.194-.156h.093C30.48.872 32 2.252 32 4.112zM16.5 5.383v23.25" stroke="#292D32" stroke-width="2" stroke-linecap="round" stroke-linejoin="round"/><path d="M27.35 1.183v8.09l-3.1-2.061-3.1 2.062V2.95c2.03-.806 4.293-1.457 6.2-1.767z" stroke="#292D32" stroke-width="2" stroke-linecap="round" stroke-linejoin="round"/></svg>