<svg width="27" height="27" fill="none" xmlns="http://www.w3.org/2000/svg"><path d="M11.693 6.3L7.464 1.42c-.488-.563-1.38-.56-1.947.008L2.039 4.91C1.004 5.946.708 7.485 1.306 8.719a36.509 36.509 0 0016.952 16.975c1.232.598 2.77.302 3.804-.735l3.51-3.515c.57-.57.57-1.468.003-1.955l-4.9-4.206c-.513-.44-1.31-.383-1.823.132l-1.705 1.707a.577.577 0 01-.691.11 18.197 18.197 0 01-6.7-6.708.58.58 0 01.11-.692l1.7-1.702c.516-.517.571-1.318.127-1.83z" stroke="#43B64B" stroke-linecap="round" stroke-linejoin="round"/></svg>