<svg width="26" height="27" fill="none" xmlns="http://www.w3.org/2000/svg"><path d="M15.618 19.025l-3.124 3.881c-.508.508-4.435-3.129-4.956-3.624-.143-.143-.286-.273-.43-.416a36.995 36.995 0 01-3.632-4.258C2.41 13.124 1.55 11.64.924 10.168.312 8.684 0 7.265 0 5.912c0-.885.156-1.732.469-2.513a5.993 5.993 0 011.497-2.174C2.799.404 3.711 0 4.674 0c.365 0 .73.078 1.055.234.338.157.638.391.872.73l3.02 4.257c.235.325.404.625.521.911.118.274.183.547.183.795 0 .312-.091.624-.274.924-.169.3-.416.612-.729.924l-.99 1.029a.697.697 0 00-.208.52c0 .105.013.196.04.3.038.104.078.182.104.26.234.43.638.99 1.21 1.667a44.605 44.605 0 001.888 2.057c.13.13.274.26.404.39.52.509 4.369 3.507 3.848 4.027z" fill="#43B64B"/><path d="M26 21.26c0 .364-.065.741-.195 1.106-.04.104-.078.208-.13.313a5.372 5.372 0 01-.886 1.328c-.638.703-1.34 1.21-2.135 1.536-.013 0-.026.013-.04.013a6.579 6.579 0 01-2.499.482c-1.328 0-2.747-.313-4.244-.95-1.498-.639-2.995-1.498-4.48-2.579a32.04 32.04 0 01-1.496-1.159l4.257-4.257c.365.273.69.482.964.625.065.026.143.065.234.104.104.04.208.052.325.052.222 0 .39-.078.534-.221l.99-.977c.325-.325.638-.572.937-.729.3-.182.599-.273.925-.273.247 0 .507.052.794.17.286.116.585.286.911.507l4.31 3.06c.338.234.572.507.716.833.13.325.208.65.208 1.015z" fill="#43B64B"/></svg>