<svg width="26" height="27" fill="none" xmlns="http://www.w3.org/2000/svg"><path d="M25 26.656H1c-.547 0-1-.453-1-1 0-.546.453-1 1-1h24c.547 0 1 .454 1 1 0 .547-.453 1-1 1zM22.36 1.965c-2.586-2.587-5.12-2.653-7.772 0l-1.614 1.613a.556.556 0 00-.133.534 10.838 10.838 0 007.373 7.373c.053.013.107.027.16.027.147 0 .28-.054.387-.16l1.6-1.614c1.32-1.306 1.96-2.573 1.96-3.853.013-1.32-.627-2.6-1.96-3.92zm-4.546 10.732a14.81 14.81 0 01-1.12-.586c-.294-.174-.574-.36-.854-.56a8.05 8.05 0 01-.746-.574 1.623 1.623 0 01-.227-.2c-.44-.373-.933-.853-1.373-1.386-.04-.027-.107-.12-.2-.24-.134-.16-.36-.427-.56-.734a7.29 7.29 0 01-.52-.786c-.214-.36-.4-.72-.587-1.094a8.975 8.975 0 01-.082-.18c-.197-.445-.776-.575-1.12-.23l-7.638 7.637a1.605 1.605 0 00-.373.733l-.72 5.107c-.134.907.12 1.76.68 2.333.48.467 1.146.72 1.866.72.16 0 .32-.013.48-.04l5.12-.72c.24-.04.574-.2.734-.373l7.628-7.628c.346-.346.216-.94-.234-1.132l-.154-.067z" fill="#43B64B"/></svg>